<svg width="40" height="40" viewBox="0 0 40 40" fill="none" xmlns="http://www.w3.org/2000/svg">
<path d="M25.9045 24.2904C25.7895 24.2047 25.6881 24.0994 25.6004 23.9844C25.575 23.9532 25.5517 23.9201 25.5302 23.8869L24.4873 22.8441L23.4366 21.7934C23.1092 21.2768 22.9201 20.6628 22.9201 20.0058C22.9201 19.3489 23.1209 18.6998 23.4659 18.1735L24.4425 17.1969L25.5653 16.0741C25.6023 16.0214 25.6433 15.9708 25.6881 15.922C25.7251 15.8811 25.7661 15.8402 25.807 15.8031L31.9961 9.61209L30.384 8L24.2982 14.0838C24.2105 14.2027 24.1033 14.308 23.9844 14.3977C23.9532 14.423 23.9201 14.4464 23.8869 14.4678L22.7914 15.5634L21.8363 16.5185C21.308 16.8694 20.6706 17.0741 19.9883 17.0741C19.306 17.0741 18.7134 16.883 18.1949 16.5536L17.1559 15.5146L16.0741 14.4327C16.0195 14.3957 15.9688 14.3548 15.922 14.3099C15.8811 14.2729 15.8402 14.232 15.8031 14.191L9.61209 8.00195L8 9.61598L14.0838 15.6998C14.2027 15.7875 14.308 15.8947 14.3977 16.0136C14.423 16.0448 14.4464 16.078 14.4678 16.1111L15.5789 17.2242C15.5789 17.2242 15.5828 17.2261 15.5848 17.2281L16.4815 18.1248C16.4815 18.1248 16.4834 18.1287 16.4854 18.1306C16.846 18.6667 17.0585 19.3119 17.0585 20.0058C17.0585 20.6998 16.8538 21.3236 16.5029 21.8538L15.5517 22.8051L14.4269 23.9298C14.3918 23.9805 14.3509 24.0292 14.3099 24.076C14.2729 24.117 14.232 24.1579 14.191 24.1949L8.00195 30.386L9.61403 32L15.6979 25.9142C15.7856 25.7953 15.8928 25.6901 16.0117 25.6004C16.0429 25.575 16.076 25.5517 16.1092 25.5302L17.1754 24.4639L18.1598 23.4795C18.6862 23.1365 19.3119 22.9376 19.9864 22.9376C20.6608 22.9376 21.3411 23.154 21.8811 23.5244L22.7583 24.4016L23.9279 25.5712C23.9786 25.6062 24.0273 25.6472 24.0741 25.6881C24.115 25.7251 24.1559 25.7661 24.193 25.807L30.384 31.9961L31.9961 30.384L25.9025 24.2904H25.9045Z" fill="#8F92A9"/>
</svg>
