<svg width="40" height="40" viewBox="0 0 40 40" fill="none" xmlns="http://www.w3.org/2000/svg">
<path d="M24.4284 23.2178C24.3421 23.1535 24.2661 23.0746 24.2003 22.9883C24.1813 22.9649 24.1637 22.9401 24.1477 22.9152L23.3655 22.133L22.5775 21.345C22.3319 20.9576 22.1901 20.4971 22.1901 20.0044C22.1901 19.5117 22.3406 19.0249 22.5994 18.6301L23.3319 17.8977L24.174 17.0556C24.2018 17.0161 24.2325 16.9781 24.2661 16.9415C24.2939 16.9108 24.3246 16.8801 24.3553 16.8523L28.9971 12.2091L27.788 11L23.2237 15.5629C23.1579 15.652 23.0775 15.731 22.9883 15.7982C22.9649 15.8173 22.9401 15.8348 22.9152 15.8509L22.0936 16.6725L21.3772 17.3889C20.981 17.652 20.5029 17.8056 19.9912 17.8056C19.4795 17.8056 19.0351 17.6623 18.6462 17.4152L17.867 16.636L17.0556 15.8246C17.0146 15.7968 16.9766 15.7661 16.9415 15.7325C16.9108 15.7047 16.8801 15.674 16.8523 15.6433L12.2091 11.0015L11 12.212L15.5629 16.7749C15.652 16.8406 15.731 16.9211 15.7982 17.0102C15.8173 17.0336 15.8348 17.0585 15.8509 17.0833L16.6842 17.9181C16.6842 17.9181 16.6871 17.9196 16.6886 17.9211L17.3611 18.5936C17.3611 18.5936 17.3626 18.5965 17.364 18.598C17.6345 19 17.7939 19.4839 17.7939 20.0044C17.7939 20.5249 17.6403 20.9927 17.3772 21.3904L16.6637 22.1038L15.8202 22.9474C15.7939 22.9854 15.7632 23.0219 15.7325 23.057C15.7047 23.0877 15.674 23.1184 15.6433 23.1462L11.0015 27.7895L12.2105 29L16.7734 24.4357C16.8392 24.3465 16.9196 24.2675 17.0088 24.2003C17.0322 24.1813 17.057 24.1637 17.0819 24.1477L17.8816 23.348L18.6199 22.6097C19.0146 22.3523 19.4839 22.2032 19.9898 22.2032C20.4956 22.2032 21.0058 22.3655 21.4108 22.6433L22.0687 23.3012L22.9459 24.1784C22.9839 24.2047 23.0205 24.2354 23.0556 24.2661C23.0863 24.2939 23.117 24.3246 23.1447 24.3553L27.788 28.9971L28.9971 27.788L24.4269 23.2178H24.4284Z" fill="#8F92A9"/>
</svg>
