<svg width="32" height="32" viewBox="0 0 32 32" fill="none" xmlns="http://www.w3.org/2000/svg">
<path d="M6 26V28H24V26H6Z" fill="#43404C"/>
<path d="M17.1823 16.7489C17.486 16.7489 17.7634 16.6447 17.9854 16.4675C18.0745 16.399 18.1548 16.3186 18.2205 16.2278L21.7793 12.5797L23 13.8228L16.2185 20.7568L14.9993 22L13.78 20.7568L7 13.8258L8.21927 12.5826L11.8569 16.3097C11.8846 16.3409 11.9153 16.3722 11.946 16.4005C12.1781 16.6164 12.4906 16.7489 12.8294 16.7489C13.5551 16.7489 14.1436 16.1489 14.1436 15.4089L14.1436 3H15.8681L15.8681 15.4089C15.8681 16.1489 16.4566 16.7489 17.1823 16.7489Z" fill="#43404C"/>
</svg>
