<svg width="20" height="20" viewBox="0 0 20 20" fill="none" xmlns="http://www.w3.org/2000/svg">
<path d="M15.2539 1.255C14.8486 1.25988 14.4434 1.41613 14.1406 1.72863L8.31055 7.65636L7.44141 11.3087L11.0938 10.4396L11.2207 10.3224L17.0264 4.60949C17.6465 4.00402 17.6562 2.98351 17.0361 2.36828L16.3818 1.7091C16.0742 1.40148 15.6641 1.25011 15.2539 1.255ZM15.2637 2.49523C15.3467 2.49523 15.4297 2.52941 15.498 2.59777L16.1523 3.25207C16.2891 3.3839 16.2891 3.5841 16.1523 3.72082L10.4688 9.30676L9.12109 9.62902L9.44336 8.28136L15.0342 2.59777C15.0977 2.52941 15.1807 2.49523 15.2637 2.49523ZM3.75 2.50011C2.36816 2.50011 1.25 3.61828 1.25 5.00011V15.0001C1.25 16.382 2.36816 17.5001 3.75 17.5001H13.75C15.1318 17.5001 16.25 16.382 16.25 15.0001V7.12902L15 8.35949V15.0001C15 15.6886 14.4385 16.2501 13.75 16.2501H3.75C3.06152 16.2501 2.5 15.6886 2.5 15.0001V5.00011C2.5 4.31164 3.06152 3.75011 3.75 3.75011H10.4004L11.6309 2.50011H3.75Z" fill="white"/>
</svg>
