<svg width="20" height="20" viewBox="0 0 20 20" fill="none" xmlns="http://www.w3.org/2000/svg">
<path d="M11.25 2.5C8.28857 2.5 5.88379 4.9292 5.19531 8.125H3.75V9.375H5.03906C5.02441 9.58008 5 9.79004 5 10C5 10.21 5.02441 10.4199 5.03906 10.625H3.75V11.875H5.19531C5.88379 15.0708 8.28857 17.5 11.25 17.5C12.9419 17.5 14.48 16.6846 15.5859 15.4102L14.6289 14.5898C13.7207 15.6372 12.5439 16.25 11.25 16.25C9.06006 16.25 7.13135 14.4385 6.48438 11.875H11.875V10.625H6.26953C6.25244 10.4175 6.25 10.2124 6.25 10C6.25 9.7876 6.25244 9.58252 6.26953 9.375H11.875V8.125H6.48438C7.13135 5.56152 9.06006 3.75 11.25 3.75C12.5439 3.75 13.7207 4.36279 14.6289 5.41016L15.5859 4.58984C14.48 3.31543 12.9419 2.5 11.25 2.5Z" fill="white"/>
</svg>
