<svg width="40" height="40" viewBox="0 0 40 40" fill="none" xmlns="http://www.w3.org/2000/svg">
<path d="M17.153 9.37467C11.2943 10.9445 7.80501 16.9882 9.37484 22.8469C10.9447 28.7056 16.9883 32.1949 22.847 30.625C28.7057 29.0552 32.195 23.0115 30.6252 17.1528C29.0554 11.2942 23.0117 7.80484 17.153 9.37467ZM17.5801 10.9684C22.5774 9.62941 27.6924 12.5825 29.0314 17.5799C30.3705 22.5772 27.4173 27.6922 22.42 29.0313C17.4226 30.3703 12.3077 27.4172 10.9686 22.4198C9.62958 17.4225 12.5827 12.3075 17.5801 10.9684ZM16.1968 23.2876C16.0445 23.3257 15.9062 23.4065 15.7982 23.5204C15.6902 23.6343 15.617 23.7766 15.587 23.9307C15.5571 24.0848 15.5717 24.2442 15.6292 24.3903C15.6867 24.5363 15.7847 24.663 15.9116 24.7553C17.4743 25.9244 19.5433 26.3856 21.5659 25.8437C23.5884 25.3018 25.1496 23.8678 25.9184 22.074C25.9628 21.9741 25.9869 21.8665 25.9893 21.7572C25.9918 21.648 25.9725 21.5393 25.9326 21.4376C25.8927 21.3358 25.833 21.2431 25.7569 21.1646C25.6809 21.0861 25.59 21.0235 25.4896 20.9805C25.3891 20.9374 25.2811 20.9147 25.1719 20.9138C25.0626 20.9128 24.9542 20.9335 24.853 20.9748C24.7518 21.016 24.6598 21.0769 24.5824 21.154C24.5049 21.2311 24.4436 21.3228 24.4019 21.4238C23.8253 22.7692 22.6651 23.841 21.1388 24.2499C19.6126 24.6589 18.0719 24.3108 16.8999 23.434C16.8013 23.3582 16.6869 23.3056 16.5651 23.2803C16.4433 23.255 16.3174 23.2575 16.1968 23.2876Z" fill="#8F89A3"/>
<path d="M17.4468 17.7557C17.7163 18.7617 17.5271 19.6864 17.0241 19.8212C16.5211 19.956 15.8949 19.2497 15.6253 18.2438C15.3558 17.2378 15.545 16.3131 16.048 16.1783C16.551 16.0435 17.1772 16.7498 17.4468 17.7557Z" fill="#8F89A3"/>
<path d="M17.4468 17.7557C17.7163 18.7617 17.5271 19.6864 17.0241 19.8212C16.5211 19.956 15.8949 19.2497 15.6253 18.2438C15.3558 17.2378 15.545 16.3131 16.048 16.1783C16.551 16.0435 17.1772 16.7498 17.4468 17.7557Z" fill="#8F89A3"/>
<path d="M17.4468 17.7557C17.7163 18.7617 17.5271 19.6864 17.0241 19.8212C16.5211 19.956 15.8949 19.2497 15.6253 18.2438C15.3558 17.2378 15.545 16.3131 16.048 16.1783C16.551 16.0435 17.1772 16.7498 17.4468 17.7557Z" fill="#8F89A3"/>
<path d="M17.4468 17.7557C17.7163 18.7617 17.5271 19.6864 17.0241 19.8212C16.5211 19.956 15.8949 19.2497 15.6253 18.2438C15.3558 17.2378 15.545 16.3131 16.048 16.1783C16.551 16.0435 17.1772 16.7498 17.4468 17.7557Z" fill="#8F89A3"/>
<path d="M22.9112 16.2915C23.1807 17.2975 22.9915 18.2223 22.4885 18.357C21.9855 18.4918 21.3593 17.7856 21.0897 16.7796C20.8202 15.7736 21.0094 14.8489 21.5124 14.7141C22.0154 14.5793 22.6416 15.2856 22.9112 16.2915Z" fill="#8F89A3"/>
<path d="M34 12C34 15.3137 31.3137 18 28 18C24.6863 18 22 15.3137 22 12C22 8.68629 24.6863 6 28 6C31.3137 6 34 8.68629 34 12Z" fill="#00FF00"/>
<path fill-rule="evenodd" clip-rule="evenodd" d="M28 15C29.6569 15 31 13.6569 31 12C31 10.3431 29.6569 9 28 9C26.3431 9 25 10.3431 25 12C25 13.6569 26.3431 15 28 15ZM28 18C31.3137 18 34 15.3137 34 12C34 8.68629 31.3137 6 28 6C24.6863 6 22 8.68629 22 12C22 15.3137 24.6863 18 28 18Z" fill="#1D1B25"/>
</svg>
