<svg width="35" height="35" viewBox="0 0 35 35" fill="none" xmlns="http://www.w3.org/2000/svg">
<circle cx="17.5" cy="17.5" r="17.5" fill="#1D1B25"/>
<path fill-rule="evenodd" clip-rule="evenodd" d="M14.5 18C14.5 18.8284 13.8284 19.5 13 19.5C12.1716 19.5 11.5 18.8284 11.5 18C11.5 17.1716 12.1716 16.5 13 16.5C13.8284 16.5 14.5 17.1716 14.5 18ZM19.5 18C19.5 18.8284 18.8284 19.5 18 19.5C17.1716 19.5 16.5 18.8284 16.5 18C16.5 17.1716 17.1716 16.5 18 16.5C18.8284 16.5 19.5 17.1716 19.5 18ZM23 19.5C23.8284 19.5 24.5 18.8284 24.5 18C24.5 17.1716 23.8284 16.5 23 16.5C22.1716 16.5 21.5 17.1716 21.5 18C21.5 18.8284 22.1716 19.5 23 19.5Z" fill="#8F89A3"/>
</svg>
