<svg width="40" height="40" viewBox="0 0 40 40" fill="none" xmlns="http://www.w3.org/2000/svg">
<rect width="40" height="40" fill="#533FF5"/>
<path d="M14.3695 13.334C12.8812 13.334 11.6611 14.554 11.6611 16.0423V23.959C11.6611 25.4473 12.8812 26.6673 14.3695 26.6673H21.2754H21.2762C22.0863 26.6668 22.8648 26.3513 23.4474 25.7884H23.4482L27.5767 21.7975C28.5874 20.8205 28.5874 19.1792 27.5767 18.2021L23.4482 14.2121C22.8656 13.6487 22.0863 13.334 21.2762 13.334H14.3695ZM14.3695 14.584H21.2762C21.7628 14.584 22.2293 14.7723 22.5791 15.1105L26.7075 19.1014C27.2218 19.5985 27.2218 20.4019 26.7075 20.8991L22.5791 24.89V24.8892C22.2292 25.2271 21.762 25.417 21.2754 25.4173H14.3695C13.5569 25.4173 12.9111 24.7715 12.9111 23.959V16.0423C12.9111 15.2298 13.5569 14.584 14.3695 14.584ZM23.7502 19.1665C23.5291 19.1665 23.3172 19.2543 23.1609 19.4106C23.0046 19.5669 22.9168 19.7788 22.9168 19.9998C22.9168 20.2209 23.0046 20.4328 23.1609 20.5891C23.3172 20.7454 23.5291 20.8332 23.7502 20.8332C23.9712 20.8332 24.1831 20.7454 24.3394 20.5891C24.4957 20.4328 24.5835 20.2209 24.5835 19.9998C24.5835 19.7788 24.4957 19.5669 24.3394 19.4106C24.1831 19.2543 23.9712 19.1665 23.7502 19.1665Z" fill="white"/>
</svg>
