<svg width="40" height="40" viewBox="0 0 40 40" fill="none" xmlns="http://www.w3.org/2000/svg">
<rect width="40" height="40" fill="#312E3C"/>
<path d="M23.4961 11.2207C23.374 11.2256 23.252 11.2402 23.1299 11.2695H23.1201L13.8379 13.9648C13.0371 14.1895 12.5 14.9414 12.5 15.7764V25.5664C12.5 26.6113 13.3252 27.5146 14.375 27.5146H25.625C26.6699 27.5146 27.5 26.6162 27.5 25.5664V16.9629C27.5 15.9082 26.6748 15.0098 25.625 15.0098H14.7266L23.4326 12.4805H23.4375C23.5645 12.4463 23.5986 12.4707 23.6475 12.5146C23.6914 12.5586 23.75 12.6562 23.75 12.8125V13.75H25V12.8125C25 12.3437 24.8242 11.8945 24.4775 11.5869C24.2236 11.3574 23.8672 11.2207 23.4961 11.2207ZM14.375 16.2598H25.625C25.957 16.2598 26.25 16.5479 26.25 16.9629V25.5664C26.25 25.9766 25.957 26.2646 25.625 26.2646H14.375C14.043 26.2646 13.75 25.9766 13.75 25.5664V16.9629C13.75 16.5479 14.043 16.2598 14.375 16.2598ZM23.75 20C23.0615 20 22.5 20.5615 22.5 21.25C22.5 21.9385 23.0615 22.5 23.75 22.5C24.4385 22.5 25 21.9385 25 21.25C25 20.5615 24.4385 20 23.75 20Z" fill="white"/>
</svg>
