<svg width="32" height="32" viewBox="0 0 32 32" fill="none" xmlns="http://www.w3.org/2000/svg">
<path d="M23.5703 14.2703C23.5703 14.0295 23.4885 13.8096 23.3493 13.6336C23.2955 13.563 23.2324 13.4993 23.1611 13.4472L20.2959 10.626L21.2722 9.65827L26.7181 15.0343L27.6945 16.0009L26.7181 16.9674L21.2746 22.3423L20.2982 21.3757L23.2254 18.492C23.2499 18.47 23.2745 18.4457 23.2967 18.4214C23.4663 18.2373 23.5703 17.9896 23.5703 17.721C23.5703 17.1457 23.0991 16.6792 22.5179 16.6792L10.7825 16.6792L10.7825 15.3121L22.5179 15.3121C23.0991 15.3121 23.5703 14.8456 23.5703 14.2703Z" fill="#FE4B00"/>
<path d="M17.6218 11.2746L17.6218 5.30566L3.69428 5.30566L3.69428 26.6944L17.4975 26.6944L17.4975 20.7255L15.7565 20.7255L15.7565 22.9638C15.7565 24.0581 14.5959 24.5804 14.0156 24.7047L7.42487 24.7047C5.93263 24.7047 5.47667 23.4612 5.43522 22.8395L5.43522 9.28496C5.43522 7.89221 6.67875 7.46112 7.30052 7.41967L14.0156 7.41967C15.2094 7.41967 15.6736 8.49739 15.7565 9.03626L15.7565 11.2746L17.6218 11.2746Z" fill="#FE4B00"/>
</svg>
