<svg width="40" height="40" viewBox="0 0 40 40" fill="none" xmlns="http://www.w3.org/2000/svg">
<circle cx="20" cy="20" r="20" fill="#1D1B25"/>
<path d="M24.3627 11.2444C24.2004 11.2491 24.0463 11.3168 23.933 11.4332L15.808 19.5582C15.6908 19.6754 15.625 19.8344 15.625 20.0001C15.625 20.1658 15.6908 20.3248 15.808 20.442L23.933 28.567C23.9906 28.627 24.0596 28.6749 24.1359 28.7079C24.2122 28.7408 24.2944 28.7583 24.3775 28.7591C24.4607 28.76 24.5431 28.7442 24.6201 28.7128C24.6971 28.6813 24.7671 28.6349 24.8259 28.5761C24.8846 28.5173 24.9311 28.4473 24.9626 28.3703C24.994 28.2934 25.0097 28.2109 25.0089 28.1277C25.008 28.0446 24.9906 27.9624 24.9576 27.8861C24.9246 27.8098 24.8768 27.7408 24.8168 27.6832L17.1337 20.0001L24.8168 12.317C24.9069 12.2292 24.9685 12.1162 24.9934 11.9928C25.0183 11.8694 25.0053 11.7414 24.9563 11.6255C24.9072 11.5096 24.8243 11.4112 24.7184 11.3432C24.6125 11.2752 24.4885 11.2408 24.3627 11.2444Z" fill="white"/>
</svg>
