<svg width="40" height="40" viewBox="0 0 40 40" fill="none" xmlns="http://www.w3.org/2000/svg">
<g clip-path="url(#clip0_3138_6)">
<path d="M11.0015 23.202C11.0015 23.6149 11.1404 23.9921 11.3767 24.2938C11.468 24.4149 11.5752 24.5241 11.6963 24.6134L17.8938 30.8109L16.2362 32.4705L5.65757 21.8918L4 20.2342L5.65757 18.5767L16.2323 8L17.8898 9.65757L11.5871 15.9623C11.5454 16 11.5037 16.0417 11.466 16.0834C11.1782 16.399 11.0015 16.8238 11.0015 17.2844C11.0015 18.271 11.8015 19.071 12.7881 19.071H36V21.4154H12.7881C11.8015 21.4154 11.0015 22.2154 11.0015 23.202Z" fill="#8F92A9"/>
</g>
<defs>
<clipPath id="clip0_3138_6">
<rect width="32" height="24.4705" fill="white" transform="translate(4 8)"/>
</clipPath>
</defs>
</svg>
