<svg width="40" height="40" viewBox="0 0 40 40" fill="none" xmlns="http://www.w3.org/2000/svg">
<path d="M31 14.7783L30.0887 13.2224L23.1579 17.1661C22.1594 17.7342 20.9119 17.0238 20.9119 15.8887V8H19.0893V15.8875C19.0893 17.0238 17.8418 17.733 16.8434 17.1649L9.91132 13.2224L9 14.7783L15.9308 18.722C16.9293 19.2901 16.9293 20.7099 15.9308 21.278L9 25.2217L9.91132 26.7776L16.8421 22.8339C17.8406 22.2658 19.0881 22.9762 19.0881 24.1113V31.9988H20.9107V24.1113C20.9107 22.975 22.1582 22.2658 23.1566 22.8339L30.0874 26.7776L30.9988 25.2217L24.068 21.278C23.0695 20.7099 23.0695 19.2901 24.068 18.722L30.9988 14.7783H31Z" fill="white"/>
</svg>
