<svg width="32" height="32" viewBox="0 0 32 32" fill="none" xmlns="http://www.w3.org/2000/svg">
<path d="M24.1204 23.8481L18.3533 18.0811C17.2029 16.9306 17.2029 15.0652 18.3533 13.9148L24.1195 8.14861L22.8493 6.87842L17.0823 12.6455C15.9318 13.7959 14.0665 13.7959 12.916 12.6455L7.14983 6.87929L5.87964 8.14947L11.6467 13.9165C12.7971 15.067 12.7971 16.9323 11.6467 18.0828L5.87964 23.8498L7.14983 25.12L12.9169 19.353C14.0673 18.2025 15.9327 18.2025 17.0832 19.353L22.8502 25.12L24.1204 23.8498L24.1204 23.8481Z" fill="#43404C"/>
<path d="M24.1204 23.8481L18.3533 18.0811C17.2029 16.9306 17.2029 15.0652 18.3533 13.9148L24.1195 8.14861L22.8493 6.87842L17.0823 12.6455C15.9318 13.7959 14.0665 13.7959 12.916 12.6455L7.14983 6.87929L5.87964 8.14947L11.6467 13.9165C12.7971 15.067 12.7971 16.9323 11.6467 18.0828L5.87964 23.8498L7.14983 25.12L12.9169 19.353C14.0673 18.2025 15.9327 18.2025 17.0832 19.353L22.8502 25.12L24.1204 23.8498L24.1204 23.8481Z" fill="#43404C"/>
</svg>
