<svg width="20" height="20" viewBox="0 0 20 20" fill="none" xmlns="http://www.w3.org/2000/svg">
<path d="M9.375 1.875V3.18359C7.60254 3.48145 6.25 5.03174 6.25 6.875C6.25 7.98584 6.77002 8.84277 7.46094 9.39453C8.15186 9.94629 8.98438 10.2539 9.76562 10.5664C10.5469 10.8789 11.2769 11.1963 11.7578 11.582C12.2388 11.9678 12.5 12.3584 12.5 13.125C12.5 14.4727 11.3794 15.625 10 15.625C8.61328 15.625 7.5 14.5117 7.5 13.125V12.5H6.25V13.125C6.25 14.978 7.60254 16.5186 9.375 16.8164V18.125H10.625V16.8164C12.4023 16.5161 13.75 14.9536 13.75 13.125C13.75 12.0117 13.23 11.1597 12.5391 10.6055C11.8481 10.0513 11.0156 9.72656 10.2344 9.41406C9.45312 9.10156 8.72314 8.80127 8.24219 8.41797C7.76123 8.03467 7.5 7.63672 7.5 6.875C7.5 5.50537 8.61572 4.375 10 4.375C11.3867 4.375 12.5 5.48828 12.5 6.875V7.5H13.75V6.875C13.75 5.02197 12.3975 3.48145 10.625 3.18359V1.875H9.375Z" fill="white"/>
</svg>
