<svg width="40" height="40" viewBox="0 0 40 40" fill="none" xmlns="http://www.w3.org/2000/svg">
<path d="M19.9715 8.33343C19.7849 8.3398 19.6053 8.40567 19.4588 8.52142L11.168 15.0532C10.1157 15.8824 9.5 17.1496 9.5 18.4894V29.6251C9.5 30.4205 10.1629 31.0834 10.9583 31.0834H16.7917C17.5871 31.0834 18.25 30.4205 18.25 29.6251V23.7918C18.25 23.6197 18.3696 23.5001 18.5417 23.5001H21.4583C21.6304 23.5001 21.75 23.6197 21.75 23.7918V29.6251C21.75 30.4205 22.4129 31.0834 23.2083 31.0834H29.0417C29.8371 31.0834 30.5 30.4205 30.5 29.6251V18.4894C30.5 17.1496 29.8843 15.8824 28.832 15.0532L20.5412 8.52142C20.3794 8.3936 20.1776 8.32702 19.9715 8.33343ZM20 10.3227L27.7497 16.4283C28.3821 16.9267 28.75 17.6847 28.75 18.4894V29.3334H23.5V23.7918C23.5 22.6747 22.5754 21.7501 21.4583 21.7501H18.5417C17.4246 21.7501 16.5 22.6747 16.5 23.7918V29.3334H11.25V18.4894C11.25 17.6847 11.6179 16.9267 12.2503 16.4283L20 10.3227Z" fill="#8F89A3"/>
</svg>
