<svg width="40" height="40" viewBox="0 0 40 40" fill="none" xmlns="http://www.w3.org/2000/svg">
<rect width="40" height="40" fill="#312E3C"/>
<path d="M17.7083 11.2501C17.6255 11.2489 17.5433 11.2642 17.4664 11.2951C17.3896 11.326 17.3196 11.3718 17.2606 11.43C17.2017 11.4881 17.1548 11.5574 17.1229 11.6338C17.0909 11.7102 17.0744 11.7922 17.0744 11.8751C17.0744 11.9579 17.0909 12.0399 17.1229 12.1163C17.1548 12.1927 17.2017 12.262 17.2606 12.3202C17.3196 12.3783 17.3896 12.4242 17.4664 12.455C17.5433 12.4859 17.6255 12.5012 17.7083 12.5001H22.2917C22.3745 12.5012 22.4567 12.4859 22.5336 12.455C22.6104 12.4242 22.6804 12.3783 22.7394 12.3202C22.7983 12.262 22.8452 12.1927 22.8771 12.1163C22.9091 12.0399 22.9256 11.9579 22.9256 11.8751C22.9256 11.7922 22.9091 11.7102 22.8771 11.6338C22.8452 11.5574 22.7983 11.4881 22.7394 11.43C22.6804 11.3718 22.6104 11.326 22.5336 11.2951C22.4567 11.2642 22.3745 11.2489 22.2917 11.2501H17.7083ZM25.8822 12.9102C25.7576 12.9118 25.6364 12.9505 25.5341 13.0215C25.4317 13.0924 25.3529 13.1923 25.3077 13.3083C25.2625 13.4244 25.253 13.5512 25.2804 13.6727C25.3077 13.7942 25.3708 13.9047 25.4614 13.9901L26.4388 14.9407C26.4976 14.9979 26.5672 15.0431 26.6434 15.0735C26.7197 15.1039 26.8012 15.119 26.8834 15.1179C26.9655 15.1168 27.0466 15.0996 27.122 15.0671C27.1974 15.0347 27.2658 14.9877 27.323 14.9289C27.3803 14.8701 27.4255 14.8005 27.4559 14.7242C27.4863 14.648 27.5014 14.5664 27.5003 14.4843C27.4992 14.4022 27.4819 14.3211 27.4495 14.2457C27.417 14.1702 27.37 14.1019 27.3112 14.0447L26.333 13.0933C26.2739 13.0342 26.2036 12.9875 26.1261 12.9561C26.0487 12.9246 25.9657 12.909 25.8822 12.9102ZM20 13.3334C15.8653 13.3334 12.5 16.6987 12.5 20.8334C12.5 24.9681 15.8653 28.3334 20 28.3334C24.1347 28.3334 27.5 24.9681 27.5 20.8334C27.5 16.6987 24.1347 13.3334 20 13.3334ZM20 14.5834C23.4592 14.5834 26.25 17.3742 26.25 20.8334C26.25 24.2926 23.4592 27.0834 20 27.0834C16.5408 27.0834 13.75 24.2926 13.75 20.8334C13.75 17.3742 16.5408 14.5834 20 14.5834ZM19.9902 15.8244C19.8246 15.827 19.6668 15.8952 19.5514 16.0141C19.4361 16.133 19.3726 16.2928 19.375 16.4584V21.0417C19.3738 21.1245 19.3891 21.2068 19.42 21.2836C19.4509 21.3605 19.4967 21.4304 19.5549 21.4894C19.6131 21.5484 19.6823 21.5952 19.7588 21.6272C19.8352 21.6592 19.9172 21.6756 20 21.6756C20.0828 21.6756 20.1648 21.6592 20.2412 21.6272C20.3177 21.5952 20.3869 21.5484 20.4451 21.4894C20.5033 21.4304 20.5491 21.3605 20.58 21.2836C20.6109 21.2068 20.6262 21.1245 20.625 21.0417V16.4584C20.6262 16.3747 20.6106 16.2917 20.5791 16.2142C20.5476 16.1367 20.5009 16.0663 20.4417 16.0072C20.3825 15.948 20.312 15.9014 20.2345 15.87C20.1569 15.8386 20.0739 15.8231 19.9902 15.8244Z" fill="white"/>
</svg>
