<svg width="32" height="32" viewBox="0 0 32 32" fill="none" xmlns="http://www.w3.org/2000/svg">
<path d="M24.5703 14.2703C24.5703 14.0295 24.4885 13.8096 24.3493 13.6336C24.2955 13.563 24.2324 13.4993 24.1611 13.4472L21.2959 10.626L22.2722 9.65827L27.7181 15.0343L28.6945 16.0009L27.7181 16.9674L22.2746 22.3423L21.2982 21.3757L24.2254 18.492C24.2499 18.47 24.2745 18.4457 24.2967 18.4214C24.4663 18.2373 24.5703 17.9896 24.5703 17.721C24.5703 17.1457 24.0991 16.6792 23.5179 16.6792L11.7825 16.6792L11.7825 15.3121L23.5179 15.3121C24.0991 15.3121 24.5703 14.8456 24.5703 14.2703Z" fill="#FE4B00"/>
<path d="M17.6218 12.2746L17.6218 6.30566L3.69428 6.30566L3.69428 25.6944L17.4975 25.6944L17.4975 19.7255L15.7565 19.7255L15.7565 21.9638C15.7565 23.0581 14.5959 23.5804 14.0156 23.7047L7.42487 23.7047C5.93263 23.7047 5.47667 22.4612 5.43522 21.8395L5.43522 10.285C5.43522 8.89221 6.67875 8.46112 7.30052 8.41967L14.0156 8.41967C15.2094 8.41967 15.6736 9.49739 15.7565 10.0363L15.7565 12.2746L17.6218 12.2746Z" fill="#FE4B00"/>
</svg>
