<svg width="40" height="40" viewBox="0 0 40 40" fill="none" xmlns="http://www.w3.org/2000/svg">
<path d="M10.6795 18.1062L10 17.6659M10.6795 18.1062C10.8691 17.8135 11.1186 17.5441 11.7592 16.8633L16.272 12.0686C17.0168 11.2772 17.3124 10.969 17.6435 10.7388C18.0874 10.4303 18.5885 10.2137 19.1175 10.102C19.5119 10.0187 19.939 10.0146 21.0258 10.0146C22.5781 10.0146 23.7009 10.015 24.5882 10.0768C25.468 10.1381 26.0557 10.2568 26.5445 10.4641C27.8986 11.0381 28.9765 12.116 29.5505 13.47C29.7577 13.9588 29.8765 14.5465 29.9377 15.4263C29.9995 16.3137 30 17.4365 30 18.9888L30 20.432C30 22.2591 29.9994 23.5808 29.9144 24.6203C29.8303 25.6503 29.6674 26.3317 29.3823 26.8913C28.8389 27.9577 27.9719 28.8248 26.9055 29.3681C26.3459 29.6532 25.6644 29.8161 24.6344 29.9003C23.595 29.9852 22.2733 29.9858 20.4462 29.9858L18.7877 29.9858C17.3371 29.9858 16.2879 29.9854 15.4576 29.9313C14.634 29.8777 14.082 29.7736 13.6212 29.5923C12.1571 29.0162 10.9983 27.8575 10.4222 26.3934C10.2409 25.9325 10.1369 25.3806 10.0832 24.557C10.0291 23.7266 10.0287 22.6774 10.0287 21.2269C10.0287 20.2922 10.0317 19.925 10.0942 19.5819C10.19 19.0561 10.389 18.5546 10.6795 18.1062Z" stroke="#8F89A3" stroke-width="1.7"/>
<path d="M18.936 10.2844L18.936 12.035C18.936 15.8378 15.8532 18.9205 12.0504 18.9204L10.2998 18.9204" stroke="#8F89A3" stroke-width="1.7" stroke-linejoin="round"/>
</svg>
