<svg width="146" height="112" viewBox="0 0 146 112" fill="none" xmlns="http://www.w3.org/2000/svg">
<path d="M11.6552 106.416C10.8446 106.416 9.92725 106.309 8.90325 106.096C7.90058 105.883 6.99391 105.616 6.18325 105.296C5.92725 105.211 5.66058 105.168 5.38325 105.168C5.08458 105.168 4.78591 105.264 4.48725 105.456C4.18858 105.627 3.81525 105.915 3.36725 106.32L1.89525 100.048C1.85258 99.8773 1.83125 99.8027 1.83125 99.824C1.83125 99.7813 1.85258 99.7387 1.89525 99.696C1.95925 99.6533 2.01258 99.6213 2.05525 99.6C2.11925 99.5787 2.16191 99.5573 2.18325 99.536C2.22591 99.5147 2.28991 99.504 2.37525 99.504C2.50325 99.504 2.62058 99.5893 2.72725 99.76C4.88191 103.408 7.75125 105.232 11.3352 105.232C12.7219 105.232 13.9699 104.88 15.0792 104.176C16.1886 103.472 16.7432 102.331 16.7432 100.752C16.7432 99.984 16.5299 99.2693 16.1032 98.608C15.6766 97.9253 15.0472 97.3813 14.2152 96.976C13.2552 96.5067 11.9112 96.0053 10.1832 95.472C8.77525 95.0453 7.78325 94.6933 7.20725 94.416C5.67125 93.6907 4.59391 92.8587 3.97525 91.92C3.37791 90.96 3.07925 89.8933 3.07925 88.72C3.07925 87.8667 3.28191 86.96 3.68725 86C4.09258 85.0187 4.80725 84.1653 5.83125 83.44C6.87658 82.7147 8.27391 82.352 10.0232 82.352C10.6846 82.352 11.3352 82.4267 11.9752 82.576C12.6366 82.7253 13.3726 82.9387 14.1832 83.216C14.5672 83.3227 14.8659 83.376 15.0792 83.376C15.6979 83.376 16.2846 83.024 16.8392 82.32L18.4392 87.792L18.5032 88.016C18.5032 88.144 18.4072 88.24 18.2152 88.304C18.0872 88.3467 17.9912 88.368 17.9272 88.368C17.8206 88.368 17.7139 88.304 17.6072 88.176C17.3512 87.7493 16.8926 87.1733 16.2312 86.448C15.5699 85.7227 14.6846 85.04 13.5752 84.4C12.4659 83.76 11.2286 83.44 9.86325 83.44C8.56191 83.44 7.56991 83.728 6.88725 84.304C6.20458 84.88 5.76725 85.4773 5.57525 86.096C5.38325 86.7147 5.28725 87.2053 5.28725 87.568C5.28725 89.04 6.12991 90.2027 7.81525 91.056C8.26325 91.2907 8.81791 91.5253 9.47925 91.76C10.1406 91.9733 10.8019 92.176 11.4632 92.368C13.4472 92.9867 14.8979 93.52 15.8152 93.968C18.3966 95.2693 19.6872 97.2533 19.6872 99.92C19.6872 101.136 19.3672 102.245 18.7272 103.248C18.0872 104.229 17.1592 105.008 15.9432 105.584C14.7272 106.139 13.2979 106.416 11.6552 106.416ZM30.768 106.448C29.232 106.448 27.8773 106.053 26.704 105.264C25.552 104.453 24.656 103.429 24.016 102.192C23.3973 100.933 23.088 99.6533 23.088 98.352C23.088 96.9867 23.3973 95.6853 24.016 94.448C24.6347 93.2107 25.5307 92.208 26.704 91.44C27.8773 90.672 29.232 90.288 30.768 90.288C32.3253 90.288 33.6907 90.672 34.864 91.44C36.0373 92.208 36.9333 93.2107 37.552 94.448C38.192 95.6853 38.512 96.9867 38.512 98.352C38.512 99.6533 38.192 100.933 37.552 102.192C36.9333 103.429 36.0267 104.453 34.832 105.264C33.6587 106.053 32.304 106.448 30.768 106.448ZM30.768 105.392C32.2187 105.392 33.36 104.72 34.192 103.376C35.024 102.011 35.44 100.336 35.44 98.352C35.44 96.2827 35.024 94.5973 34.192 93.296C33.3813 91.9733 32.24 91.312 30.768 91.312C29.3387 91.312 28.208 91.9733 27.376 93.296C26.544 94.5973 26.128 96.2827 26.128 98.352C26.128 99.632 26.3093 100.816 26.672 101.904C27.056 102.971 27.5893 103.824 28.272 104.464C28.976 105.083 29.808 105.392 30.768 105.392ZM58.2272 104.784C58.4832 104.784 58.6432 104.816 58.7072 104.88C58.7926 104.944 58.8352 105.051 58.8352 105.2C58.8352 105.392 58.7606 105.509 58.6112 105.552L53.5872 106.32L53.5552 103.472C52.1472 105.371 50.4726 106.32 48.5312 106.32C46.7392 106.32 45.4379 105.851 44.6272 104.912C43.8379 103.952 43.4326 102.789 43.4112 101.424C43.3899 99.8453 43.3792 97.3387 43.3792 93.904C43.3579 93.264 43.1659 92.848 42.8032 92.656C42.4619 92.464 41.8859 92.336 41.0752 92.272C40.8832 92.2507 40.7872 92.112 40.7872 91.856C40.7872 91.6427 40.8512 91.5147 40.9792 91.472L46.1312 90.256L46.0992 95.696C46.0992 98.8107 46.1099 100.603 46.1312 101.072C46.2806 103.504 47.3259 104.72 49.2672 104.72C50.0779 104.72 50.8566 104.496 51.6032 104.048C52.3499 103.579 52.9899 102.885 53.5232 101.968L53.4272 93.936C53.4272 93.488 53.3312 93.1573 53.1392 92.944C52.9472 92.7093 52.7019 92.56 52.4032 92.496C52.1046 92.4107 51.6779 92.336 51.1232 92.272C50.9312 92.2507 50.8352 92.08 50.8352 91.76C50.8352 91.632 50.8992 91.5467 51.0272 91.504C51.3259 91.3973 53.0432 90.992 56.1792 90.288L56.2112 103.28C56.2112 104.112 56.6699 104.603 57.5872 104.752C57.7152 104.773 57.9286 104.784 58.2272 104.784ZM93.082 94.576H59.738V93.072H93.082V94.576ZM111.61 105.168C111.781 105.168 111.866 105.296 111.866 105.552C111.866 105.851 111.781 106 111.61 106H104.25C104.143 106 104.069 105.968 104.026 105.904C104.005 105.819 103.994 105.701 103.994 105.552C103.994 105.296 104.079 105.168 104.25 105.168H104.634C104.975 105.168 105.253 105.083 105.466 104.912C105.701 104.741 105.818 104.539 105.818 104.304C105.818 104.091 105.743 103.888 105.594 103.696C105.317 103.248 103.919 101.349 101.402 98L99.194 100.08V103.76C99.194 104.336 99.3647 104.72 99.706 104.912C100.069 105.083 100.559 105.168 101.178 105.168H101.594C101.743 105.168 101.818 105.296 101.818 105.552C101.818 105.851 101.743 106 101.594 106H94.106C93.9353 106 93.85 105.851 93.85 105.552C93.85 105.296 93.9353 105.168 94.106 105.168H94.49C95.1087 105.168 95.5887 105.083 95.93 104.912C96.2927 104.72 96.474 104.336 96.474 103.76L96.41 86C96.41 85.3387 96.218 84.9013 95.834 84.688C95.45 84.4533 94.8847 84.336 94.138 84.336C93.9247 84.336 93.818 84.176 93.818 83.856C93.818 83.7067 93.882 83.6107 94.01 83.568L99.194 82.352V98.576C100.346 97.5307 101.573 96.4 102.874 95.184C104.197 93.9467 104.965 93.2213 105.178 93.008C105.349 92.7947 105.434 92.5707 105.434 92.336C105.434 92.08 105.317 91.8667 105.082 91.696C104.847 91.504 104.485 91.408 103.994 91.408H103.61C103.439 91.408 103.354 91.2693 103.354 90.992C103.354 90.7147 103.439 90.576 103.61 90.576H110.842C111.034 90.576 111.13 90.7147 111.13 90.992C111.13 91.2267 111.034 91.3653 110.842 91.408H110.458C109.285 91.472 108.143 91.984 107.034 92.944C106.202 93.648 104.933 94.7787 103.226 96.336C103.994 97.36 104.666 98.2347 105.242 98.96C106.031 100.027 106.746 100.987 107.386 101.84C108.047 102.693 108.538 103.333 108.858 103.76C109.242 104.229 109.615 104.581 109.978 104.816C110.341 105.051 110.767 105.168 111.258 105.168H111.61ZM121.485 106.448C119.949 106.448 118.595 106.053 117.421 105.264C116.269 104.453 115.373 103.429 114.733 102.192C114.115 100.933 113.805 99.6533 113.805 98.352C113.805 96.9867 114.115 95.6853 114.733 94.448C115.352 93.2107 116.248 92.208 117.421 91.44C118.595 90.672 119.949 90.288 121.485 90.288C123.043 90.288 124.408 90.672 125.581 91.44C126.755 92.208 127.651 93.2107 128.269 94.448C128.909 95.6853 129.229 96.9867 129.229 98.352C129.229 99.6533 128.909 100.933 128.269 102.192C127.651 103.429 126.744 104.453 125.549 105.264C124.376 106.053 123.021 106.448 121.485 106.448ZM121.485 105.392C122.936 105.392 124.077 104.72 124.909 103.376C125.741 102.011 126.157 100.336 126.157 98.352C126.157 96.2827 125.741 94.5973 124.909 93.296C124.099 91.9733 122.957 91.312 121.485 91.312C120.056 91.312 118.925 91.9733 118.093 93.296C117.261 94.5973 116.845 96.2827 116.845 98.352C116.845 99.632 117.027 100.816 117.389 101.904C117.773 102.971 118.307 103.824 118.989 104.464C119.693 105.083 120.525 105.392 121.485 105.392Z" fill="white"/>
<path d="M138.572 88.088V83.864H140.428V88.088H138.572ZM137.644 89.688L133.996 87.576L134.924 85.976L138.556 88.088L137.644 89.688ZM141.324 89.688L140.428 88.104L144.076 85.976L145.004 87.576L141.324 89.688ZM144.076 93.4L140.396 91.288L141.324 89.704L145.004 91.8L144.076 93.4ZM134.924 93.4L133.996 91.8L137.644 89.704L138.572 91.288L134.924 93.4ZM138.572 95.512V91.304H140.396V95.512H138.572Z" fill="white"/>
<path d="M68.1429 23.2088V0H78.3407V23.2088H68.1429ZM63.044 32L43 20.3956L48.0989 11.6044L68.0549 23.2088L63.044 32ZM83.2637 32L78.3407 23.2967L98.3846 11.6044L103.484 20.3956L83.2637 32ZM98.3846 52.3956L78.1648 40.7912L83.2637 32.0879L103.484 43.6044L98.3846 52.3956ZM48.0989 52.3956L43 43.6044L63.044 32.0879L68.1429 40.7912L48.0989 52.3956ZM68.1429 64V40.8791H78.1648V64H68.1429Z" fill="#00FF00"/>
</svg>
