<svg width="40" height="40" viewBox="0 0 40 40" fill="none" xmlns="http://www.w3.org/2000/svg">
<g clip-path="url(#clip0_3602_4547)">
<path d="M33.9734 16.7995C35.3345 16.7536 36.8448 17.0503 38.2613 17.7621C38.9265 18.0962 39.5333 18.5376 39.8328 19.2322C40.2232 20.1377 39.9114 21.0903 39.0806 21.6928C38.031 22.4536 36.8504 22.8655 35.5628 23.0597C34.2625 23.2558 32.9733 23.2766 31.6921 23.0298C30.2257 22.7474 28.8216 22.3212 27.8279 21.0648C27.3851 20.505 27.4406 19.3757 27.831 18.8921C28.5058 18.0559 29.4113 17.6197 30.3842 17.2788C31.4742 16.8972 32.6068 16.7883 33.9734 16.7999V16.7995Z" fill="#7B7BFF"/>
<path d="M35.2038 30.8294C33.8435 30.8745 32.6203 30.376 31.4189 29.825C30.0747 29.2085 28.8717 28.3708 27.8353 27.3169C27.2041 26.675 26.6523 25.9696 26.3868 25.0752C26.0718 24.0146 26.5912 23.2116 27.6964 23.0389C29.2782 22.7921 30.7095 23.2482 32.1252 23.8762C33.2028 24.3543 34.2025 24.9496 35.1028 25.7013C36.0705 26.5091 36.9684 27.3811 37.39 28.6244C37.8041 29.8465 37.184 30.6312 36.0414 30.8222C35.7695 30.8677 35.4836 30.829 35.2042 30.829L35.2038 30.8294Z" fill="#7B7BFF"/>
<path d="M30.7197 35.6166C30.6862 36.0416 30.683 36.5417 30.3764 36.9775C29.8494 37.7263 29.0884 37.6159 28.3714 37.2442C26.7049 36.381 25.6521 34.9276 24.6851 33.3904C24.024 32.3398 23.5653 31.1966 23.2251 30.0187C22.9604 29.1016 22.8139 28.1439 23.156 27.1869C23.3736 26.5788 24.0707 26.216 24.7039 26.3855C25.7659 26.6694 26.5612 27.3556 27.2786 28.1235C28.2209 29.1319 28.9914 30.2691 29.5967 31.5164C30.2167 32.7931 30.6794 34.109 30.7197 35.6166Z" fill="#7B7BFF"/>
<path d="M17.7081 33.8028C17.6438 32.1162 17.94 30.5575 18.4726 29.0395C18.6155 28.632 18.8483 28.2672 19.1314 27.941C19.6528 27.3397 20.3642 27.3481 20.8865 27.953C21.2813 28.4099 21.5452 28.9466 21.7161 29.5136C22.2299 31.217 22.4387 32.9679 22.2978 34.7386C22.1804 36.2132 21.9852 37.6837 21.2546 39.0191C21.1472 39.2153 21.0106 39.3851 20.8729 39.5494C20.3335 40.1918 19.5526 40.1379 19.0483 39.4525C18.5497 38.7747 18.2961 38.0075 18.1013 37.1965C17.827 36.0537 17.6434 34.9093 17.7085 33.8032L17.7081 33.8028Z" fill="#7B7BFF"/>
<path d="M16.726 27.8839C16.7064 29.1949 16.2485 30.3584 15.7371 31.4889C14.9402 33.2493 13.9021 34.8634 12.51 36.225C12.0832 36.6425 11.6141 37.0241 11.0575 37.2546C10.0806 37.6593 9.59907 37.3236 9.4234 36.2992C9.31959 35.6947 9.46771 35.0954 9.61504 34.5256C9.92405 33.3334 10.3948 32.193 10.998 31.1145C11.846 29.5993 12.8457 28.1977 14.1832 27.0701C14.5729 26.7415 15.0212 26.4843 15.5327 26.3655C16.0632 26.2419 16.629 26.6267 16.6873 27.167C16.714 27.4162 16.7148 27.6682 16.7256 27.8839H16.726Z" fill="#7B7BFF"/>
<path d="M3.77355 30.3981C3.429 30.4049 3.09324 30.3487 2.81257 30.1604C2.45245 29.9192 2.44007 29.4627 2.78502 28.8817C3.32959 27.965 4.11051 27.2668 4.94374 26.6197C6.49401 25.4163 8.19559 24.4832 10.0237 23.7795C10.6841 23.5251 11.376 23.3716 12.0771 23.2803C12.3801 23.2408 12.6839 23.2731 12.9865 23.3632C13.498 23.5155 13.7084 23.8843 13.5207 24.3788C13.2433 25.1097 12.7254 25.6671 12.1685 26.1866C10.8254 27.4399 9.29631 28.4064 7.64104 29.2079C6.40298 29.8076 5.13338 30.2326 3.77355 30.3981Z" fill="#7B7BFF"/>
<path d="M27.6049 16.6615C27.4803 16.6615 27.4524 16.6631 27.4244 16.6615C27.0575 16.6384 26.6803 16.6029 26.497 16.2269C26.3113 15.8453 26.5485 15.5287 26.7401 15.2273C27.3897 14.2053 28.3343 13.4852 29.2929 12.7854C30.8875 11.6207 32.6178 10.7048 34.4851 10.0609C35.1399 9.83518 35.8138 9.64817 36.5209 9.66293C37.4148 9.68167 37.693 10.1554 37.2682 10.9433C36.8854 11.6534 36.3049 12.2017 35.6996 12.7045C34.3581 13.8194 32.8913 14.7508 31.3075 15.4913C30.2615 15.9805 29.1927 16.4036 28.0497 16.6101C27.8716 16.6424 27.6895 16.6524 27.6045 16.6619L27.6049 16.6615Z" fill="#7B7BFF"/>
<path d="M6.21626 21.7732C4.64523 21.7928 3.10015 21.6022 1.58741 21.1787C1.25604 21.0858 0.929856 20.9498 0.626031 20.788C0.310227 20.6201 -0.00238179 20.4195 1.36796e-05 19.9857C0.00240915 19.5503 0.332186 19.3689 0.63681 19.1874C1.24007 18.8278 1.92557 18.6595 2.6007 18.5491C4.10266 18.3038 5.61979 18.1715 7.14651 18.262C8.48198 18.3409 9.81427 18.4474 11.0982 18.8633C11.5346 19.0044 11.9418 19.2129 12.2844 19.5176C12.619 19.8154 12.5547 20.2353 12.1878 20.5439C11.6456 20.9997 10.9789 21.1755 10.3253 21.3314C8.97904 21.6528 7.60444 21.7948 6.21666 21.774L6.21626 21.7732Z" fill="#7B7BFF"/>
<path d="M30.4484 3.65214C30.3398 4.36149 30.24 5.06806 29.9729 5.7475C29.6759 6.50311 29.4048 7.27027 29.0191 7.98481C28.033 9.81062 26.9506 11.571 25.3572 12.9511C25.0003 13.2601 24.6294 13.5532 24.1204 13.5707C23.8317 13.5807 23.6712 13.4614 23.5634 13.1811C23.3203 12.5471 23.5019 11.9299 23.6445 11.3346C24.013 9.79308 24.7125 8.37756 25.5189 7.02505C26.3562 5.6207 27.2792 4.27178 28.5564 3.20915C28.7927 3.01257 29.0634 2.88418 29.3261 2.73306C29.8955 2.40569 30.3342 2.67444 30.4468 3.40094C30.4596 3.48268 30.4484 3.56801 30.4484 3.65175V3.65214Z" fill="#7B7BFF"/>
<path d="M12.833 16.4556C11.8493 16.3571 10.953 16.0457 10.0655 15.6777C8.81343 15.1585 7.62447 14.5174 6.48583 13.796C5.23738 13.0054 4.03246 12.1421 3.05351 11.0109C2.73252 10.64 2.5285 10.0567 2.71655 9.88843C3.03315 9.60533 3.42401 9.6464 3.82286 9.72495C6.10614 10.1759 8.0872 11.3087 10.0187 12.5181C11.2229 13.2717 12.3759 14.1218 13.263 15.267C13.3053 15.3216 13.3628 15.3675 13.3948 15.4273C13.5177 15.6585 13.7018 15.9054 13.5525 16.1645C13.3996 16.4305 13.0949 16.4496 12.8326 16.456L12.833 16.4556Z" fill="#7B7BFF"/>
<path d="M16.4432 12.8531C16.4432 12.9648 16.4528 13.0776 16.4412 13.1881C16.4133 13.4576 16.254 13.5553 16.0049 13.4676C15.6304 13.3352 15.3162 13.0988 15.0523 12.8109C14.0134 11.6769 13.1295 10.4312 12.3418 9.11021C11.7625 8.13889 11.2347 7.14324 10.7592 6.12009C10.3619 5.2656 10.0525 4.37721 9.87324 3.44895C9.84968 3.32654 9.8413 3.19775 9.85008 3.07374C9.88442 2.60762 10.0936 2.50435 10.5132 2.71847C10.9827 2.95811 11.3453 3.32216 11.6786 3.71332C13.0556 5.32939 14.1559 7.12849 15.1205 9.01092C15.6543 10.0528 16.1186 11.1286 16.3977 12.2722C16.4432 12.4592 16.4388 12.6586 16.4576 12.8523C16.4528 12.8527 16.448 12.8531 16.4432 12.8535V12.8531Z" fill="#7B7BFF"/>
<path d="M19.0682 6.20117C18.958 4.88374 19.1245 3.57868 19.2475 2.27601C19.3118 1.59537 19.4056 0.898776 19.713 0.261994C19.7765 0.130013 19.824 0.00201824 19.9957 2.45583e-05C20.1813 -0.00196912 20.2484 0.117652 20.3087 0.27595C20.6225 1.09974 20.7283 1.96101 20.8077 2.83105C20.9271 4.13731 20.9926 5.44437 20.9738 6.75701C20.9527 8.23392 20.8445 9.70406 20.6149 11.1618C20.5646 11.4828 20.4979 11.8166 20.3402 12.1192C20.2616 12.2699 20.2109 12.4494 20.022 12.4641C19.818 12.4797 19.7677 12.2943 19.6954 12.1427C19.3972 11.5167 19.3082 10.8325 19.2471 10.1646C19.1273 8.84758 18.9544 7.52896 19.0686 6.20196L19.0682 6.20117Z" fill="#7B7BFF"/>
</g>
<defs>
<clipPath id="clip0_3602_4547">
<rect width="40" height="40" fill="white"/>
</clipPath>
</defs>
</svg>
