<svg width="20" height="20" viewBox="0 0 20 20" fill="none" xmlns="http://www.w3.org/2000/svg">
<path d="M13.5237 9.39118C13.4528 9.35677 13.3807 9.32366 13.3078 9.29195C13.1807 6.92156 11.901 5.56451 9.75228 5.55062C9.74254 5.55056 9.73286 5.55056 9.72313 5.55056C8.43792 5.55056 7.36903 6.10582 6.71113 7.11622L7.89286 7.93671C8.38433 7.18198 9.15565 7.02109 9.72369 7.02109C9.73025 7.02109 9.73684 7.02109 9.74333 7.02115C10.4508 7.02571 10.9847 7.23392 11.3302 7.63994C11.5817 7.93554 11.7499 8.34402 11.8332 8.85954C11.2059 8.75163 10.5275 8.71846 9.80229 8.76054C7.75939 8.87965 6.44605 10.0856 6.53425 11.7613C6.57901 12.6113 6.99738 13.3425 7.71224 13.8202C8.31665 14.2241 9.09508 14.4215 9.90411 14.3768C10.9725 14.3175 11.8107 13.905 12.3954 13.1505C12.8395 12.5776 13.1204 11.8352 13.2444 10.8997C13.7536 11.2107 14.1309 11.62 14.3393 12.112C14.6937 12.9484 14.7144 14.3228 13.6064 15.4432C12.6356 16.4248 11.4687 16.8495 9.70524 16.8626C7.74905 16.8479 6.26961 16.2129 5.30772 14.9753C4.40698 13.8163 3.94148 12.1424 3.92411 9.99984C3.94148 7.85728 4.40698 6.18331 5.30772 5.02438C6.26961 3.78672 7.74903 3.15175 9.70522 3.13703C11.6756 3.15186 13.1808 3.78989 14.1795 5.03352C14.6692 5.64338 15.0385 6.41032 15.2819 7.30455L16.6667 6.93058C16.3716 5.82989 15.9074 4.88141 15.2757 4.0948C13.9953 2.50042 12.1228 1.68344 9.71005 1.6665H9.70039C7.29257 1.68338 5.44099 2.50347 4.1971 4.10394C3.09021 5.52817 2.51925 7.50988 2.50006 9.99398L2.5 9.99984L2.50006 10.0057C2.51925 12.4898 3.09021 14.4715 4.1971 15.8958C5.44099 17.4962 7.29257 18.3163 9.70039 18.3332H9.71005C11.8507 18.3182 13.3596 17.7509 14.6027 16.4938C16.229 14.8493 16.18 12.7879 15.644 11.5225C15.2595 10.615 14.5263 9.87798 13.5237 9.39118ZM9.82763 12.9084C8.93226 12.9595 8.00207 12.5527 7.9562 11.6814C7.92221 11.0354 8.41042 10.3146 9.88258 10.2287C10.0512 10.2189 10.2166 10.2141 10.3791 10.2141C10.9139 10.2141 11.4141 10.2667 11.8689 10.3673C11.6993 12.5116 10.7043 12.8597 9.82763 12.9084Z" fill="#181818"/>
</svg>
