<svg width="20" height="20" viewBox="0 0 20 20" fill="none" xmlns="http://www.w3.org/2000/svg">
  <path d="M10.0003 1.6665C9.88553 1.6665 9.81185 1.67463 9.77734 1.67546C9.61414 1.6793 9.45892 1.74684 9.34486 1.86363C9.2308 1.98043 9.16696 2.13721 9.16699 2.30046V3.5415C9.16582 3.62432 9.18112 3.70655 9.21201 3.78341C9.24289 3.86026 9.28874 3.93021 9.34689 3.98919C9.40505 4.04817 9.47434 4.09501 9.55075 4.12698C9.62716 4.15894 9.70916 4.17541 9.79199 4.17541C9.87482 4.17541 9.95682 4.15894 10.0332 4.12698C10.1096 4.09501 10.1789 4.04817 10.2371 3.98919C10.2952 3.93021 10.3411 3.86026 10.372 3.78341C10.4029 3.70655 10.4182 3.62432 10.417 3.5415V2.95801C14.1374 3.17703 17.0837 6.2233 17.0837 9.99984C17.0837 13.9191 13.9196 17.0832 10.0003 17.0832C6.08104 17.0832 2.91699 13.9191 2.91699 9.99984C2.91699 8.04044 3.70912 6.27433 4.99137 4.9917C5.05136 4.93411 5.09924 4.86513 5.13223 4.7888C5.16522 4.71247 5.18265 4.63032 5.18349 4.54717C5.18434 4.46402 5.16859 4.38154 5.13716 4.30456C5.10572 4.22757 5.05925 4.15763 5.00045 4.09883C4.94165 4.04003 4.87171 3.99356 4.79473 3.96213C4.71774 3.9307 4.63526 3.91494 4.55211 3.91579C4.46896 3.91663 4.38682 3.93406 4.31049 3.96705C4.23416 4.00004 4.16518 4.04793 4.10758 4.10791C2.60067 5.61528 1.66699 7.70257 1.66699 9.99984C1.66699 14.5947 5.40545 18.3332 10.0003 18.3332C14.5952 18.3332 18.3337 14.5947 18.3337 9.99984C18.3337 5.40496 14.5952 1.6665 10.0003 1.6665ZM6.45215 5.82666C6.32776 5.82669 6.20622 5.86383 6.10306 5.93333C5.9999 6.00282 5.91982 6.10152 5.87307 6.21678C5.82632 6.33204 5.81502 6.45864 5.84062 6.58036C5.86622 6.70208 5.92755 6.8134 6.01676 6.90006L9.16943 10.0527C9.18287 10.264 9.27624 10.4623 9.43056 10.6072C9.58489 10.7522 9.7886 10.833 10.0003 10.8332C10.215 10.8306 10.4204 10.7452 10.5737 10.5949C10.727 10.4446 10.8164 10.241 10.8232 10.0264C10.83 9.81179 10.7538 9.60285 10.6103 9.44311C10.4669 9.28337 10.2673 9.18516 10.0532 9.16895L6.90055 6.01628C6.8423 5.95628 6.77259 5.90859 6.69557 5.87602C6.61855 5.84345 6.53577 5.82666 6.45215 5.82666Z" />
</svg>