<svg width="20" height="20" viewBox="0 0 20 20" fill="none" xmlns="http://www.w3.org/2000/svg">
<path fill-rule="evenodd" clip-rule="evenodd" d="M2.27257 8.59243C2.01159 6.73549 1.88111 5.80702 2.14281 5.04697C2.37302 4.37842 2.80896 3.7999 3.38816 3.39433C4.04663 2.93327 4.9751 2.80278 6.83205 2.5418L8.74779 2.27257C10.6047 2.01159 11.5332 1.88111 12.2932 2.14281C12.9617 2.37301 13.5403 2.80896 13.9458 3.38816C14.1142 3.62858 14.2385 3.90501 14.3411 4.24947C13.9881 4.23987 13.5953 4.23676 13.1542 4.23574C13.1175 4.16174 13.077 4.09307 13.0316 4.02832C12.7612 3.64218 12.3756 3.35156 11.9299 3.19809C11.4232 3.02362 10.8042 3.11061 9.56625 3.28459L6.32424 3.74022C5.08628 3.9142 4.4673 4.0012 4.02832 4.30857C3.64218 4.57895 3.35156 4.96463 3.19809 5.41033C3.02362 5.91703 3.11061 6.53601 3.28459 7.77397L3.74022 11.016C3.87512 11.9758 3.95772 12.5635 4.13127 12.9838C4.13178 13.6663 4.13495 14.2391 4.15498 14.7301C3.86249 14.5152 3.60506 14.253 3.39433 13.952C2.93327 13.2936 2.80278 12.3651 2.5418 10.5081L2.27257 8.59243Z" fill="#6E6E6E"/>
<path fill-rule="evenodd" clip-rule="evenodd" d="M13.8358 3.23994C13.4387 2.73449 12.9034 2.35294 12.2932 2.14281C11.5332 1.88111 10.6048 2.01159 8.7479 2.27255L6.83205 2.5418C4.9751 2.80278 4.04663 2.93327 3.38816 3.39433C2.80896 3.7999 2.37302 4.37842 2.14281 5.04697C1.88111 5.80702 2.01159 6.73549 2.27257 8.59243L2.5418 10.5081C2.74516 11.9551 2.86929 12.8383 3.13233 13.4693C3.20686 13.6481 3.29254 13.8066 3.39433 13.952C3.60506 14.253 3.86249 14.5152 4.15498 14.7301C4.13953 14.3514 4.13411 13.9241 4.13221 13.4354C4.13221 13.4353 4.13221 13.4354 4.13221 13.4354C4.13197 13.3731 4.13178 13.3098 4.13164 13.2456C4.13145 13.1601 4.13134 13.0729 4.13127 12.9838C3.95772 12.5635 3.87512 11.9758 3.74023 11.016L3.28459 7.77397C3.11062 6.53605 3.02362 5.91702 3.19809 5.41033C3.35156 4.96463 3.64218 4.57895 4.02832 4.30857C4.4673 4.0012 5.08628 3.9142 6.32424 3.74022L9.56625 3.28459C10.8042 3.11062 11.4232 3.02362 11.9299 3.19809C12.3756 3.35156 12.7612 3.64218 13.0316 4.02832C13.077 4.09307 13.1175 4.16174 13.1542 4.23574C13.1954 4.23583 13.2362 4.23595 13.2766 4.23608C13.6683 4.2374 14.0211 4.24077 14.3411 4.24947C14.2385 3.90501 14.1142 3.62858 13.9458 3.38816C13.9105 3.33765 13.8738 3.28823 13.8358 3.23994Z" fill="white"/>
<path fill-rule="evenodd" clip-rule="evenodd" d="M14.5429 6.35156H8.59043C7.29353 6.35156 6.24219 7.40291 6.24219 8.6998V14.6522C6.24219 15.9491 7.29353 17.0005 8.59043 17.0005H14.5429C15.8398 17.0005 16.8911 15.9491 16.8911 14.6522V8.6998C16.8911 7.40291 15.8398 6.35156 14.5429 6.35156ZM8.59043 5.35156H14.5429C16.392 5.35156 17.8911 6.85062 17.8911 8.6998V14.6522C17.8911 16.5014 16.392 18.0005 14.5429 18.0005H8.59043C6.74125 18.0005 5.24219 16.5014 5.24219 14.6522V8.6998C5.24219 6.85062 6.74125 5.35156 8.59043 5.35156Z" fill="white"/>
<path fill-rule="evenodd" clip-rule="evenodd" d="M8.59098 6.65967C7.46421 6.65967 6.55078 7.5731 6.55078 8.69987V14.6523C6.55078 15.7791 7.46421 16.6925 8.59098 16.6925H14.5434C15.6702 16.6925 16.5836 15.7791 16.5836 14.6523V8.69987C16.5836 7.5731 15.6702 6.65967 14.5434 6.65967H8.59098ZM5.05078 8.69987C5.05078 6.74467 6.63578 5.15967 8.59098 5.15967H14.5434C16.4986 5.15967 18.0836 6.74467 18.0836 8.69987V14.6523C18.0836 16.6075 16.4986 18.1925 14.5434 18.1925H8.59098C6.63578 18.1925 5.05078 16.6075 5.05078 14.6523V8.69987Z" fill="white"/>
<path fill-rule="evenodd" clip-rule="evenodd" d="M15.0839 12.2049C14.9409 12.0619 14.709 12.062 14.5662 12.2049L14.5661 12.2049L11.6427 15.1282C11.6427 15.1282 11.6427 15.1282 11.6427 15.1282C11.0771 15.6938 10.1664 15.7137 9.57666 15.1731L9.57664 15.1731L8.20647 13.9171L8.20646 13.9171C8.06201 13.7847 7.83886 13.7895 7.70025 13.9281L7.70023 13.9281L6.25987 15.3685L5.19922 14.3078L6.63956 12.8675C6.63957 12.8675 6.63957 12.8675 6.63958 12.8675C7.34602 12.161 8.48358 12.1362 9.22008 12.8114C9.22008 12.8114 9.22008 12.8114 9.22008 12.8114L10.586 14.0636L13.5054 11.1443C13.5054 11.1443 13.5054 11.1442 13.5055 11.1442C14.2342 10.4154 15.4157 10.4155 16.1444 11.1441L16.1445 11.1442L17.727 12.7267L16.6663 13.7873L15.0839 12.2049Z" fill="white"/>
<path d="M8.77772 9.8157C9.29138 9.8157 9.70779 9.39929 9.70779 8.88563C9.70779 8.37197 9.29138 7.95557 8.77772 7.95557C8.26406 7.95557 7.84766 8.37197 7.84766 8.88563C7.84766 9.39929 8.26406 9.8157 8.77772 9.8157Z" fill="#6E6E6E"/>
<path fill-rule="evenodd" clip-rule="evenodd" d="M8.77772 8.8157C8.7391 8.8157 8.70779 8.84701 8.70779 8.88563C8.70779 8.92426 8.7391 8.95557 8.77772 8.95557C8.81635 8.95557 8.84766 8.92426 8.84766 8.88563C8.84766 8.84701 8.81635 8.8157 8.77772 8.8157ZM9.70779 8.88563C9.70779 9.39929 9.29138 9.8157 8.77772 9.8157C8.26406 9.8157 7.84766 9.39929 7.84766 8.88563C7.84766 8.37197 8.26406 7.95557 8.77772 7.95557C9.29138 7.95557 9.70779 8.37197 9.70779 8.88563Z" fill="white"/>
</svg>
