<svg width="17" height="17" viewBox="0 0 17 17" fill="none" xmlns="http://www.w3.org/2000/svg">
<path fill-rule="evenodd" clip-rule="evenodd" d="M0.272568 6.59243C0.0115917 4.73549 -0.118893 3.80702 0.142813 3.04697C0.373016 2.37842 0.808957 1.7999 1.38816 1.39433C2.04663 0.933272 2.9751 0.80278 4.83205 0.541803L6.74779 0.272568C8.60472 0.0115946 9.53315 -0.118894 10.2932 0.142811C10.9617 0.373015 11.5403 0.808956 11.9458 1.38816C12.1142 1.62858 12.2385 1.90501 12.3411 2.24947C11.9881 2.23987 11.5953 2.23676 11.1542 2.23574C11.1175 2.16174 11.077 2.09307 11.0316 2.02832C10.7612 1.64218 10.3756 1.35156 9.92988 1.19809C9.42318 1.02362 8.8042 1.11061 7.56625 1.28459L4.32424 1.74022C3.08628 1.9142 2.4673 2.0012 2.02832 2.30857C1.64218 2.57895 1.35156 2.96463 1.19809 3.41033C1.02362 3.91703 1.11061 4.53601 1.28459 5.77397L1.74022 9.01596C1.87512 9.97579 1.95772 10.5635 2.13127 10.9838C2.13178 11.6663 2.13495 12.2391 2.15498 12.7301C1.86249 12.5152 1.60506 12.253 1.39433 11.952C0.933273 11.2936 0.802781 10.3651 0.541804 8.50815L0.272568 6.59243Z" fill="#6E6E6E"/>
<path fill-rule="evenodd" clip-rule="evenodd" d="M11.8358 1.23994C11.4387 0.734485 10.9034 0.352939 10.2932 0.142811C9.53317 -0.118889 8.60476 0.0115896 6.7479 0.272553L4.83205 0.541803C2.9751 0.80278 2.04663 0.933272 1.38816 1.39433C0.808957 1.7999 0.373016 2.37842 0.142813 3.04697C-0.118893 3.80702 0.0115917 4.73549 0.272568 6.59243L0.541804 8.50815C0.745161 9.95509 0.869294 10.8383 1.13233 11.4693C1.20686 11.6481 1.29254 11.8066 1.39433 11.952C1.60506 12.253 1.86249 12.5152 2.15498 12.7301C2.13953 12.3514 2.13411 11.9241 2.13221 11.4354C2.13221 11.4353 2.13221 11.4354 2.13221 11.4354C2.13197 11.3731 2.13178 11.3098 2.13164 11.2456C2.13145 11.1601 2.13134 11.0729 2.13127 10.9838C1.95772 10.5635 1.87512 9.97582 1.74023 9.01604L1.28459 5.77397C1.11062 4.53605 1.02362 3.91702 1.19809 3.41033C1.35156 2.96463 1.64218 2.57895 2.02832 2.30857C2.4673 2.0012 3.08628 1.9142 4.32424 1.74022L7.56625 1.28459C8.80417 1.11062 9.42319 1.02362 9.92988 1.19809C10.3756 1.35156 10.7612 1.64218 11.0316 2.02832C11.077 2.09307 11.1175 2.16174 11.1542 2.23574C11.1954 2.23583 11.2362 2.23595 11.2766 2.23608C11.6683 2.2374 12.0211 2.24077 12.3411 2.24947C12.2385 1.90501 12.1142 1.62858 11.9458 1.38816C11.9105 1.33765 11.8738 1.28823 11.8358 1.23994Z" fill="white"/>
<path d="M12.5429 3.35156H6.59043C4.74125 3.35156 3.24219 4.85062 3.24219 6.6998V12.6522C3.24219 14.5014 4.74125 16.0005 6.59043 16.0005H12.5429C14.392 16.0005 15.8911 14.5014 15.8911 12.6522V6.6998C15.8911 4.85062 14.392 3.35156 12.5429 3.35156Z" fill="black"/>
<path fill-rule="evenodd" clip-rule="evenodd" d="M12.5429 4.35156H6.59043C5.29353 4.35156 4.24219 5.40291 4.24219 6.6998V12.6522C4.24219 13.9491 5.29353 15.0005 6.59043 15.0005H12.5429C13.8398 15.0005 14.8911 13.9491 14.8911 12.6522V6.6998C14.8911 5.40291 13.8398 4.35156 12.5429 4.35156ZM6.59043 3.35156H12.5429C14.392 3.35156 15.8911 4.85062 15.8911 6.6998V12.6522C15.8911 14.5014 14.392 16.0005 12.5429 16.0005H6.59043C4.74125 16.0005 3.24219 14.5014 3.24219 12.6522V6.6998C3.24219 4.85062 4.74125 3.35156 6.59043 3.35156Z" fill="white"/>
<path fill-rule="evenodd" clip-rule="evenodd" d="M6.59098 4.65967C5.46421 4.65967 4.55078 5.5731 4.55078 6.69987V12.6523C4.55078 13.7791 5.46421 14.6925 6.59098 14.6925H12.5434C13.6702 14.6925 14.5836 13.7791 14.5836 12.6523V6.69987C14.5836 5.5731 13.6702 4.65967 12.5434 4.65967H6.59098ZM3.05078 6.69987C3.05078 4.74467 4.63578 3.15967 6.59098 3.15967H12.5434C14.4986 3.15967 16.0836 4.74467 16.0836 6.69987V12.6523C16.0836 14.6075 14.4986 16.1925 12.5434 16.1925H6.59098C4.63578 16.1925 3.05078 14.6075 3.05078 12.6523V6.69987Z" fill="white"/>
<path fill-rule="evenodd" clip-rule="evenodd" d="M13.0839 10.2049C12.9409 10.0619 12.709 10.062 12.5662 10.2049L12.5661 10.2049L9.64273 13.1282C9.64273 13.1282 9.64272 13.1282 9.64272 13.1282C9.07714 13.6938 8.16638 13.7137 7.57666 13.1731L7.57664 13.1731L6.20647 11.9171L6.20646 11.9171C6.06201 11.7847 5.83886 11.7895 5.70025 11.9281L5.70023 11.9281L4.25987 13.3685L3.19922 12.3078L4.63956 10.8675C4.63957 10.8675 4.63957 10.8675 4.63958 10.8675C5.34602 10.161 6.48358 10.1362 7.22008 10.8114C7.22008 10.8114 7.22008 10.8114 7.22008 10.8114L8.58605 12.0636L11.5054 9.14428C11.5054 9.14426 11.5054 9.14425 11.5055 9.14423C12.2342 8.41544 13.4157 8.41553 14.1444 9.14412L14.1445 9.14416L15.727 10.7267L14.6663 11.7873L13.0839 10.2049Z" fill="white"/>
<path d="M6.77772 7.8157C7.29138 7.8157 7.70779 7.39929 7.70779 6.88563C7.70779 6.37197 7.29138 5.95557 6.77772 5.95557C6.26406 5.95557 5.84766 6.37197 5.84766 6.88563C5.84766 7.39929 6.26406 7.8157 6.77772 7.8157Z" fill="#6E6E6E"/>
<path fill-rule="evenodd" clip-rule="evenodd" d="M6.77772 6.8157C6.7391 6.8157 6.70779 6.84701 6.70779 6.88563C6.70779 6.92426 6.7391 6.95557 6.77772 6.95557C6.81635 6.95557 6.84766 6.92426 6.84766 6.88563C6.84766 6.84701 6.81635 6.8157 6.77772 6.8157ZM7.70779 6.88563C7.70779 7.39929 7.29138 7.8157 6.77772 7.8157C6.26406 7.8157 5.84766 7.39929 5.84766 6.88563C5.84766 6.37197 6.26406 5.95557 6.77772 5.95557C7.29138 5.95557 7.70779 6.37197 7.70779 6.88563Z" fill="white"/>
</svg>
